<?xml version="1.0" encoding="UTF-8" standalone="no"?>
<!-- Created with Inkscape (http://www.inkscape.org/) -->

<svg
   version="1.1"
   id="svg2"
   xml:space="preserve"
   width="181.616"
   height="71.109573"
   viewBox="0 0 181.616 71.109574"
   sodipodi:docname="5f191df8225373d345014289a67fd08f.eps"
   xmlns:inkscape="http://www.inkscape.org/namespaces/inkscape"
   xmlns:sodipodi="http://sodipodi.sourceforge.net/DTD/sodipodi-0.dtd"
   xmlns="http://www.w3.org/2000/svg"
   xmlns:svg="http://www.w3.org/2000/svg"><defs
     id="defs6" /><sodipodi:namedview
     id="namedview4"
     pagecolor="#ffffff"
     bordercolor="#666666"
     borderopacity="1.0"
     inkscape:pageshadow="2"
     inkscape:pageopacity="0.0"
     inkscape:pagecheckerboard="0" /><g
     id="g8"
     inkscape:groupmode="layer"
     inkscape:label="ink_ext_XXXXXX"
     transform="matrix(1.3333333,0,0,-1.3333333,0,71.109376)"><g
       id="g10"
       transform="scale(0.1)"><path
         d="M 647.027,431.219 V 531.613 H 617.055 V 406.297 h 124.05 v -30.152 h 27.45 v 55.074 H 754.469 V 531.613 H 724.492 V 431.219 Z M 461.039,531.613 V 406.297 h 29.973 v 100.398 h 77.465 V 406.297 h 29.976 v 125.316 z m -126.043,0 H 305.023 V 406.297 h 29.973 v 52.367 h 77.465 v -52.367 h 29.977 v 125.316 h -29.977 v -48.027 h -77.465 v 48.027 0"
         style="fill:#f25a1a;fill-opacity:1;fill-rule:nonzero;stroke:none"
         id="path12" /><path
         d="M 647.027,431.219 V 531.613 H 617.055 V 406.297 h 124.05 v -30.152 h 27.45 v 55.074 H 754.469 V 531.613 H 724.492 V 431.219 Z M 461.039,531.613 V 406.297 h 29.973 v 100.398 h 77.465 V 406.297 h 29.976 v 125.316 z m -126.043,0 H 305.023 V 406.297 h 29.973 v 52.367 h 77.465 v -52.367 h 29.977 v 125.316 h -29.977 v -48.027 h -77.465 z"
         style="fill:none;stroke:#231f20;stroke-width:3.41466;stroke-linecap:butt;stroke-linejoin:miter;stroke-miterlimit:11.3604;stroke-dasharray:none;stroke-opacity:1"
         id="path14" /><path
         d="m 1243.08,350.09 h -37.41 l 53.2,-56.031 -59.69,-59.356 h 40.57 l 40.9,45.559 40.9,-45.559 h 40.57 l -59.69,59.356 53.21,56.031 h -37.41 l -37.58,-42.063 z M 1071.83,234.703 h 117.88 v 21.781 h -90.28 v 26.438 h 87.45 v 20.113 h -87.45 v 25.278 h 90.28 V 350.09 H 1071.83 Z M 933.496,350.09 v -22.945 h 48.219 v -92.442 h 27.595 v 92.442 h 48.72 v 22.945 z m -196.523,0 V 234.703 h 27.601 v 92.442 h 3.656 l 39.571,-92.442 h 39.238 l 39.574,92.442 h 3.657 v -92.442 h 27.597 V 350.09 h -51.375 l -38.238,-92.442 h -1.664 l -38.242,92.442 z m -19.785,-75.985 v 36.25 c 0,8.063 -0.833,14.77 -2.493,20.086 -1.664,5.352 -4.211,9.536 -7.648,12.61 -3.41,3.078 -7.762,5.238 -12.996,6.512 -5.266,1.277 -11.446,1.886 -18.594,1.855 h -50.715 c -7.84,0.031 -14.461,-0.609 -19.89,-1.965 -5.461,-1.359 -9.84,-3.601 -13.164,-6.707 -3.325,-3.129 -5.762,-7.344 -7.262,-12.637 -1.52,-5.32 -2.27,-11.886 -2.242,-19.754 v -36.25 c -0.028,-6.98 0.746,-12.933 2.296,-17.925 1.555,-5.016 4.02,-9.086 7.403,-12.246 3.351,-3.161 7.758,-5.489 13.16,-7.012 5.434,-1.496 12,-2.219 19.699,-2.219 h 50.715 c 8.035,-0.027 14.742,0.695 20.145,2.11 5.378,1.441 9.644,3.71 12.832,6.816 3.16,3.101 5.402,7.176 6.757,12.187 1.36,5.02 2.024,11.118 1.997,18.289 z m -107.407,2.833 v 30.757 c -0.027,4.098 0.332,7.481 1.024,10.196 0.695,2.687 1.886,4.824 3.55,6.371 1.665,1.554 3.934,2.636 6.79,3.301 2.855,0.636 6.457,0.941 10.75,0.914 h 35.582 c 4.097,0.027 7.562,-0.25 10.39,-0.86 2.852,-0.582 5.125,-1.637 6.844,-3.156 1.719,-1.5 2.965,-3.606 3.742,-6.293 0.774,-2.688 1.164,-6.125 1.133,-10.305 v -30.758 c 0.031,-3.882 -0.273,-7.097 -0.883,-9.648 -0.637,-2.519 -1.719,-4.516 -3.297,-5.957 -1.582,-1.414 -3.797,-2.441 -6.625,-3.02 -2.828,-0.582 -6.429,-0.859 -10.808,-0.832 h -36.575 c -5.546,-0.054 -9.921,0.5 -13.082,1.633 -3.16,1.137 -5.375,3.106 -6.648,5.934 -1.305,2.797 -1.941,6.73 -1.887,11.723 z m -133.008,50.207 h 46.055 c 3.602,0 6.567,-0.387 8.922,-1.133 2.328,-0.746 4.156,-1.887 5.484,-3.356 1.336,-1.468 2.246,-3.297 2.774,-5.457 0.555,-2.187 0.805,-4.683 0.777,-7.508 0.055,-4.16 -0.472,-7.539 -1.555,-10.199 -1.05,-2.664 -2.906,-4.601 -5.539,-5.875 -2.632,-1.273 -6.238,-1.883 -10.863,-1.883 h -46.055 z m 0,-58.356 h 51.375 c 9.45,-0.027 17.153,1.328 23.082,4.102 5.93,2.769 10.282,7.175 13.051,13.191 2.774,6.012 4.129,13.879 4.102,23.609 0.027,9.668 -1.301,17.454 -4.043,23.414 -2.746,5.93 -7.098,10.282 -13.082,12.969 -5.957,2.715 -13.774,4.071 -23.445,4.016 H 449.172 V 234.703 h 27.601 z M 305.023,350.09 V 234.703 h 27.598 v 92.442 h 71.328 v -92.442 h 27.602 V 350.09 H 305.023 v 0"
         style="fill:#302c2d;fill-opacity:1;fill-rule:nonzero;stroke:none"
         id="path16" /><path
         d="m 1287.84,192.332 h -13.82 v -41.129 h 13.82 v 22.313 c 0,5.578 2.58,9.324 9.24,9.324 h 4.08 c 7.99,0 9.99,-3.828 9.99,-9.406 v -22.231 h 13.82 v 22.063 c 0,5.828 3.5,9.574 10.41,9.574 h 3.33 c 8.74,0 9.57,-3.496 9.57,-8.992 v -22.645 h 13.82 v 25.391 c 0,9.324 -5.25,15.738 -18.57,15.738 h -4.91 c -10.32,0 -12.98,-2.336 -15.48,-5.996 -1.33,2.496 -5,5.996 -14.07,5.996 h -8.08 c -6.99,0 -9.98,-2.5 -13.15,-6.414 z m -46.76,-17.398 v -6.579 c 0,-5.492 -2.83,-7.66 -8.91,-7.66 h -9.4 c -6.41,0 -9.41,2.414 -9.41,7.575 v 6.746 c 0,5.328 3,7.992 9.41,7.992 h 9.4 c 6.08,0 8.91,-3.25 8.91,-8.074 z m -23.47,17.562 c -12.16,0 -18.07,-7.406 -18.07,-16.48 v -8.578 c 0,-9.489 6.49,-16.235 18.07,-16.235 h 19.31 c 11.74,0 17.98,6.66 17.98,16.07 v 8.743 c 0,9.156 -5.99,16.48 -18.06,16.48 z m -35.19,-14.488 c 0,10.574 -5.41,14.488 -18.65,14.488 h -18.73 c -11.15,0 -16.98,-6.492 -16.98,-16.148 v -9.91 c 0,-8.157 5.74,-15.235 16.56,-15.235 h 19.65 c 14.82,0 18.15,5.078 18.15,14.902 h -13.82 c 0,-3.996 -0.92,-5.41 -6.08,-5.41 h -13.32 c -4.16,0 -7.32,2.664 -7.32,7.16 v 7.079 c 0,5.16 2.91,8.074 7.74,8.074 h 13.07 c 4.74,0 5.91,-1.582 5.91,-5 z m -86.64,-26.805 h 13.82 v 13.82 h -13.82 z m -64.74,49.035 v -7.906 h -4.99 v -9.492 h 4.99 v -16.317 c 0,-9.492 6,-15.32 16.65,-15.32 h 8.74 c 17.65,0 19.98,8.16 19.98,16.817 h -13.81 c 0,-4.161 -1.42,-7.325 -5.42,-7.325 h -5.74 c -4,0 -6.58,2.168 -6.58,7.325 v 14.82 h 25.81 v 9.492 h -25.81 v 7.906 z m -33.852,-31.8 c 0,-5.247 -3.083,-7.743 -9.657,-7.743 h -9.906 c -6.078,0 -8.992,2.746 -8.992,7.743 v 6.66 c 0,4.91 2.914,7.742 8.992,7.742 h 9.906 c 6.574,0 9.657,-2.664 9.657,-7.742 z m -28.555,23.894 h -13.82 v -57.777 h 13.82 v 22.312 c 1.5,-2.418 5.91,-5.664 11.988,-5.664 h 12.402 c 12.317,0 17.977,7.16 17.977,16.152 v 8.993 c 0,10.488 -6.4,15.984 -17.977,15.984 h -12.484 c -6.328,0 -9.578,-2.75 -11.906,-4.914 z m -30.778,-14.324 c 0,10.574 -5.41,14.488 -18.644,14.488 H 900.48 c -11.156,0 -16.984,-6.492 -16.984,-16.148 v -9.91 c 0,-8.157 5.742,-15.235 16.567,-15.235 h 19.648 c 14.816,0 18.144,5.078 18.144,14.902 h -13.816 c 0,-3.996 -0.918,-5.41 -6.078,-5.41 h -13.32 c -4.161,0 -7.325,2.664 -7.325,7.16 v 7.079 c 0,5.16 2.914,8.074 7.743,8.074 h 13.07 c 4.742,0 5.91,-1.582 5.91,-5 z m -84.304,-9.57 c 0,-5.247 -3.078,-7.743 -9.653,-7.743 h -9.91 c -6.078,0 -8.988,2.746 -8.988,7.743 v 6.66 c 0,4.91 2.91,7.742 8.988,7.742 h 9.91 c 6.575,0 9.653,-2.664 9.653,-7.742 z M 825,192.332 H 811.18 V 134.555 H 825 v 22.312 c 1.496,-2.418 5.906,-5.664 11.984,-5.664 h 12.407 c 12.32,0 17.98,7.16 17.98,16.152 v 8.993 c 0,10.488 -6.41,15.984 -17.98,15.984 h -12.489 c -6.324,0 -9.574,-2.75 -11.902,-4.914 z m -74.066,0 h -13.821 v -41.129 h 13.821 v 20.399 c 0,7.328 3.996,11.238 10.988,11.238 h 6.828 c 7.074,0 9.738,-2.996 9.738,-10.156 v -21.481 h 13.821 v 24.227 c 0,10.656 -6.161,16.902 -18.317,16.902 h -11.156 c -9.488,0 -11.652,-5.164 -11.902,-5.828 v 5.828 0"
         style="fill:#302c2d;fill-opacity:1;fill-rule:nonzero;stroke:none"
         id="path18" /><path
         d="m 1.33203,303.926 c 4.52735,32.285 14.98047,62.765 31.11327,91.113 l 3.1992,5.613 6.1211,-2.054 c 7.9532,-2.672 44.2188,-14.207 51.1407,-5.59 7.0039,8.73 -13.6329,42.078 -18.0899,49.039 l -3.2891,5.141 4.168,4.457 c 21.3477,22.824 46.3907,42.546 75.5077,54.425 l 5.434,2.219 3.664,-4.586 c 5.301,-6.644 30.855,-37.68 41.554,-33.933 10.543,3.691 10.833,43.171 10.766,51.464 l -0.051,6.172 5.989,1.5 c 12.714,3.196 25.765,4.098 38.757,2.145 l 6.563,-0.985 2.203,-125.343 -6.84,-0.989 c -52.918,-7.691 -100.683,-38.082 -121.379,-88.707 -15.207,-37.187 -12.097,-77.941 5.168,-113.847 11.266,-23.43 29.289,-42.09 52.047,-54.567 29.215,-16.011 64.016,-20.64 96.586,-14.191 35.16,6.961 65.836,26.273 87.137,55.137 4.234,5.734 7.707,11.82 10.746,18.296 H 525.234 C 519.113,178.684 509.566,159.473 497.227,135.199 447.723,37.8633 331.02,-10.3906 225.609,1.875 l -6.554,0.76172 -0.375,6.59375 c -0.489,8.66013 -3.36,48.67583 -14.391,51.92583 -10.832,3.1992 -33.98,-28.5079 -38.812,-35.3438 l -3.633,-5.1406 -5.809,2.4297 C 124.93,36.1289 98.1172,55.6094 75.1875,80.2695 l -4.293,4.6133 3.5782,5.1875 c 4.8906,7.082 26.2463,39.0897 19.6445,48.3707 -6.6953,9.418 -44.8867,-1.199 -53.1289,-3.625 l -5.9531,-1.753 -3.0782,5.386 C 15.3594,167.492 4.98828,198.82 0.800781,232.02 L 0,238.379 l 6.06641,2.055 c 7.86719,2.671 45.34379,16.031 45.32419,27.25 -0.0156,11.203 -36.957,24.933 -44.90622,27.75 l -6.04688,2.14 0.89453,6.352 v 0"
         style="fill:#302c2d;fill-opacity:1;fill-rule:evenodd;stroke:none"
         id="path20" /><path
         d="m 405.543,174.18 c 5.008,7.914 9.363,16.258 12.426,24.386 32.59,-0.168 65.539,-0.328 98.133,-0.496 -5.653,-20.363 -13.555,-38.746 -24.786,-59.172 C 445.035,46.1484 332.414,-3.65625 227.602,9.81641 228.898,46.1875 228.34,78.9102 213.75,84.0703 195.637,89.957 176.887,59.7188 160.152,30.4844 c -33.254,14.7344 -58.73,33.4492 -78.1364,55.2734 25.0004,28.7582 39.8084,52.6052 32.8824,65.9882 -9.054,13.77 -36.3433,10.356 -75.0425,-9.258 -15.0586,24.723 -25.4102,54.621 -30.18362,90.66 40.90232,9.204 68.82032,20.145 67.16402,35.055 0.0547,15.078 -26.4609,25.996 -66.6523,34.774 5.3437,32.437 15.2734,61.961 30.168,88.328 32.6953,-17.067 59.3867,-24.867 73.6874,-13.59 8.43,15.594 -8.203,40.863 -31.5273,68.715 21.1363,23.519 45.6873,40.437 72.7383,52.519 21.164,-35.094 38.77,-54.402 51.797,-53.441 15.844,2.555 19.68,33.996 14.508,75.937 12.765,2.942 24.746,3.836 35.679,1.993 l 0.825,-91.981 C 125.754,419.84 61.9258,286.227 125.18,179.027 189.535,73.8516 338.316,76.582 405.543,174.18 v 0"
         style="fill:#f25a1a;fill-opacity:1;fill-rule:evenodd;stroke:none"
         id="path22" /></g></g></svg>
