<svg width="128" height="43" viewBox="0 0 128 43" fill="none" xmlns="http://www.w3.org/2000/svg">
<path d="M17.2992 18.8678L5.61091 6.22679V18.8678H0.93305V0.468683H6.01439L17.7153 13.1633V0.468683H22.368V18.8678H17.2992Z" fill="#000000"/>
<path d="M47.1064 17.9573C45.6858 18.4572 44.2652 18.8143 42.8446 19.0285C41.4325 19.2517 39.9866 19.3633 38.5072 19.3633C36.6159 19.3633 34.9305 19.1491 33.4511 18.7205C31.9801 18.2831 30.7402 17.6537 29.7315 16.8324C28.7228 16.0111 27.9537 15.0068 27.4241 13.8195C26.8945 12.6321 26.6297 11.2886 26.6297 9.78878C26.6297 8.39612 26.8945 7.10613 27.4241 5.9188C27.9621 4.72254 28.7186 3.68697 29.6937 2.8121C30.6772 1.9283 31.8624 1.24089 33.2494 0.749893C34.6363 0.249964 36.183 0 37.8894 0C39.4613 0 40.8987 0.227646 42.2016 0.682938C43.5129 1.1293 44.6351 1.79439 45.5681 2.67819C46.5096 3.56199 47.2367 4.65112 47.7495 5.94558C48.2706 7.24004 48.5312 8.7309 48.5312 10.4182V11.6501H31.4589C31.6102 12.2304 31.8582 12.7616 32.2028 13.2436C32.5559 13.7257 33.0308 14.1364 33.6276 14.4756C34.2244 14.8149 34.9557 15.0782 35.8215 15.2657C36.6958 15.4532 37.7381 15.5469 38.9485 15.5469C39.8059 15.5469 40.6465 15.4933 41.4703 15.3862C42.2941 15.2701 43.0632 15.1228 43.7777 14.9443C44.4922 14.7568 45.1352 14.5515 45.7068 14.3283C46.2868 14.1051 46.7534 13.8819 47.1064 13.6588V17.9573ZM43.8786 8.00779C43.8365 7.55249 43.7062 7.08381 43.4877 6.60174C43.2775 6.11074 42.9413 5.66883 42.479 5.27603C42.0167 4.88323 41.4114 4.56185 40.6633 4.31188C39.9152 4.05299 38.9821 3.92355 37.8642 3.92355C36.8134 3.92355 35.9056 4.06192 35.1407 4.33867C34.3757 4.61541 33.7327 4.95911 33.2115 5.36977C32.6988 5.78043 32.2995 6.22233 32.0137 6.69547C31.7279 7.16862 31.543 7.60606 31.4589 8.00779H43.8786Z" fill="#000000"/>
<path d="M67.4696 18.8678V17.0601C66.8728 17.4082 66.2297 17.7162 65.5404 17.984C64.8596 18.2519 64.1493 18.4795 63.4096 18.667C62.6698 18.8545 61.9049 18.9928 61.1148 19.0821C60.333 19.1803 59.5429 19.2294 58.7443 19.2294C57.8113 19.2294 56.9076 19.1357 56.0334 18.9482C55.1676 18.7607 54.3985 18.4572 53.726 18.0376C53.0535 17.618 52.5114 17.069 52.0995 16.3905C51.696 15.712 51.4943 14.8818 51.4943 13.8998C51.4943 12.6589 51.8137 11.6278 52.4525 10.8065C53.0914 9.97626 54.0665 9.29778 55.3778 8.77107C56.6891 8.24436 58.345 7.83817 60.3456 7.55249C62.3546 7.26682 64.7293 7.04364 67.4696 6.88295V6.49461C67.4696 6.19108 67.3939 5.89202 67.2426 5.59742C67.0913 5.29389 66.8139 5.03053 66.4104 4.80735C66.0154 4.57524 65.469 4.38777 64.7713 4.24493C64.082 4.10209 63.1994 4.03067 62.1235 4.03067C61.2745 4.03067 60.4339 4.07977 59.6017 4.17798C58.7779 4.26725 57.9794 4.39223 57.206 4.55292C56.4411 4.71361 55.714 4.90109 55.0247 5.11534C54.3354 5.3296 53.7092 5.55278 53.146 5.78489V1.36588C53.7344 1.20519 54.3943 1.04896 55.1256 0.897193C55.8569 0.745429 56.6176 0.615984 57.4078 0.508856C58.1979 0.392801 58.9965 0.303528 59.8034 0.241037C60.6104 0.169619 61.3837 0.133909 62.1235 0.133909C63.5777 0.133909 64.9184 0.263355 66.1457 0.522247C67.3729 0.772211 68.4279 1.16501 69.3105 1.70065C70.2015 2.23629 70.895 2.91476 71.3909 3.73607C71.8953 4.55739 72.1474 5.53492 72.1474 6.66869V18.8678H67.4696ZM67.4696 10.4717C65.6707 10.5431 64.1409 10.6458 62.88 10.7797C61.6275 10.9136 60.5852 11.0698 59.753 11.2484C58.9208 11.4269 58.2652 11.6189 57.786 11.8242C57.3153 12.0295 56.9623 12.2393 56.7269 12.4536C56.4915 12.6678 56.3444 12.8821 56.2856 13.0963C56.2352 13.3106 56.2099 13.507 56.2099 13.6855C56.2099 13.8998 56.2646 14.1096 56.3739 14.3149C56.4831 14.5113 56.6723 14.6854 56.9413 14.8372C57.2186 14.9889 57.5843 15.1095 58.0382 15.1987C58.4921 15.288 59.0637 15.3326 59.753 15.3326C60.5179 15.3326 61.2661 15.2701 61.9974 15.1452C62.7287 15.0202 63.4222 14.8506 64.0778 14.6363C64.7335 14.4131 65.3471 14.1542 65.9187 13.8596C66.4987 13.5561 67.0157 13.2347 67.4696 12.8955V10.4717Z" fill="#000000"/>
<path d="M87.0762 4.47258V18.8678H82.3984V4.47258H75.0475V0.468683H94.4398V4.47258H87.0762Z" fill="#000000"/>
<path d="M16.8958 28.5049C16.5679 28.3352 16.135 28.1433 15.5971 27.9291C15.0591 27.7148 14.4497 27.5139 13.7688 27.3265C13.0879 27.1301 12.3482 26.9694 11.5496 26.8444C10.7511 26.7105 9.93152 26.6435 9.09093 26.6435C8.41846 26.6435 7.84266 26.6658 7.36353 26.7105C6.8928 26.7551 6.49352 26.8131 6.16569 26.8846C5.84627 26.956 5.58989 27.0408 5.39656 27.139C5.21163 27.2283 5.06873 27.322 4.96786 27.4202C4.86699 27.5184 4.79974 27.6166 4.76612 27.7148C4.7409 27.813 4.72829 27.9023 4.72829 27.9826C4.72829 28.2504 4.85438 28.487 5.10656 28.6923C5.35873 28.8887 5.70337 29.0673 6.14048 29.228C6.57758 29.3797 7.08613 29.527 7.66614 29.6699C8.24614 29.8038 8.85977 29.9466 9.50702 30.0984C10.1627 30.2412 10.8351 30.4019 11.5244 30.5805C12.2221 30.7501 12.8946 30.9509 13.5418 31.1831C14.1975 31.4152 14.8153 31.6874 15.3953 31.9999C15.9753 32.3034 16.4839 32.6605 16.921 33.0712C17.3581 33.4818 17.7027 33.955 17.9549 34.4906C18.2071 35.0263 18.3332 35.6378 18.3332 36.3252C18.3332 37.209 18.1861 37.9678 17.8919 38.6016C17.5977 39.2355 17.2026 39.7711 16.7066 40.2085C16.2191 40.646 15.6517 40.9986 15.0044 41.2664C14.3572 41.5253 13.6763 41.7262 12.9618 41.869C12.2557 42.0119 11.537 42.1056 10.8057 42.1502C10.0828 42.1949 9.39354 42.2172 8.73789 42.2172C7.02309 42.2172 5.43438 42.0654 3.97177 41.7619C2.51755 41.4673 1.23146 41.0968 0.113479 40.6505V36.2582C1.26508 36.9367 2.57639 37.4679 4.04742 37.8517C5.52685 38.2356 7.10715 38.4276 8.78832 38.4276C9.78021 38.4276 10.5872 38.374 11.2092 38.2669C11.8396 38.1508 12.3314 38.008 12.6844 37.8384C13.0375 37.6598 13.277 37.4679 13.4031 37.2625C13.5292 37.0572 13.5923 36.8608 13.5923 36.6733C13.5923 36.3787 13.4662 36.1243 13.214 35.9101C12.9618 35.6869 12.6172 35.4949 12.1801 35.3342C11.743 35.1646 11.2344 35.0129 10.6544 34.879C10.0744 34.7361 9.45659 34.5977 8.80093 34.4638C8.15368 34.321 7.48541 34.1692 6.79613 34.0085C6.10685 33.8479 5.43438 33.6604 4.77873 33.4461C4.13148 33.2229 3.51785 32.9685 2.93785 32.6828C2.35784 32.3882 1.84929 32.0445 1.41218 31.6517C0.975079 31.25 0.630439 30.7903 0.378263 30.2725C0.126088 29.7458 0 29.1387 0 28.4513C0 27.6389 0.134494 26.9381 0.403481 26.3489C0.672468 25.7597 1.03392 25.2598 1.48784 24.8491C1.95016 24.4296 2.47973 24.0903 3.07654 23.8314C3.68176 23.5725 4.31641 23.3717 4.98047 23.2288C5.64453 23.086 6.317 22.9878 6.99787 22.9342C7.67875 22.8807 8.326 22.8539 8.93963 22.8539C9.61209 22.8539 10.3014 22.8896 11.0075 22.961C11.722 23.0324 12.4239 23.1351 13.1131 23.269C13.8024 23.394 14.4665 23.5413 15.1053 23.7109C15.7526 23.8805 16.3494 24.0591 16.8958 24.2465V28.5049Z" fill="#000000"/>
<path d="M32.4802 27.3265V41.7217H27.8024V27.3265H20.4514V23.3226H39.8437V27.3265H32.4802Z" fill="#000000"/>
<path d="M47.5477 23.3226V33.6872C47.5477 34.3746 47.6024 34.9995 47.7116 35.5619C47.8209 36.1154 48.0226 36.593 48.3168 36.9947C48.6111 37.3875 49.0229 37.6955 49.5525 37.9187C50.0821 38.133 50.7714 38.2401 51.6203 38.2401C52.2592 38.2401 52.9275 38.1463 53.6251 37.9589C54.3312 37.7714 55.0289 37.5214 55.7182 37.209C56.4075 36.8965 57.0631 36.5394 57.6852 36.1377C58.3156 35.727 58.8788 35.303 59.3747 34.8656V23.3226H64.04V41.7217H59.3747V39.2042C58.7863 39.5613 58.1601 39.9229 57.496 40.2889C56.832 40.646 56.1259 40.9718 55.3778 41.2664C54.6296 41.5521 53.8353 41.7842 52.9947 41.9628C52.1541 42.1502 51.2673 42.244 50.3343 42.244C49.1658 42.244 48.1193 42.0922 47.1947 41.7887C46.27 41.4941 45.4883 41.0745 44.8494 40.5299C44.2106 39.9764 43.7188 39.3114 43.3742 38.5347C43.038 37.7491 42.8699 36.8742 42.8699 35.9101V23.3226H47.5477Z" fill="#000000"/>
<path d="M90.695 32.5088C90.695 33.6872 90.5731 34.7361 90.3293 35.6556C90.0855 36.5662 89.7409 37.3607 89.2954 38.0392C88.8583 38.7177 88.3287 39.2935 87.7067 39.7666C87.0931 40.2398 86.408 40.6192 85.6515 40.9049C84.8949 41.1906 84.0796 41.4003 83.2053 41.5343C82.3311 41.6592 81.4191 41.7217 80.4692 41.7217H69.4744V23.3226H80.444C81.3939 23.3226 82.3059 23.3895 83.1801 23.5234C84.0543 23.6484 84.8697 23.8537 85.6262 24.1394C86.3912 24.4251 87.0846 24.8045 87.7067 25.2776C88.3287 25.7419 88.8583 26.3177 89.2954 27.0051C89.7409 27.6835 90.0855 28.4781 90.3293 29.3887C90.5731 30.2992 90.695 31.3393 90.695 32.5088ZM85.9793 32.5088C85.9793 31.625 85.87 30.8572 85.6515 30.2055C85.4413 29.5538 85.0967 29.0182 84.6175 28.5986C84.1468 28.1701 83.529 27.8532 82.764 27.6478C81.9991 27.4336 81.0661 27.3265 79.9649 27.3265H74.1522V37.7178H79.9649C81.0661 37.7178 81.9991 37.6152 82.764 37.4098C83.529 37.1956 84.1468 36.8742 84.6175 36.4457C85.0967 36.0083 85.4413 35.4637 85.6515 34.812C85.87 34.1603 85.9793 33.3926 85.9793 32.5088Z" fill="#000000"/>
<path d="M94.9693 41.7217V23.3226H99.6472V41.7217H94.9693Z" fill="#000000"/>
<path d="M127.5 32.5355C127.5 34.1157 127.227 35.5128 126.68 36.7269C126.134 37.9321 125.352 38.9409 124.335 39.7533C123.318 40.5656 122.082 41.1816 120.628 41.6012C119.182 42.0119 117.556 42.2172 115.749 42.2172C113.941 42.2172 112.306 42.0119 110.844 41.6012C109.39 41.1816 108.15 40.5656 107.124 39.7533C106.099 38.9409 105.309 37.9321 104.754 36.7269C104.199 35.5128 103.922 34.1157 103.922 32.5355C103.922 30.9554 104.199 29.5627 104.754 28.3576C105.309 27.1434 106.099 26.1302 107.124 25.3178C108.15 24.5054 109.39 23.8939 110.844 23.4833C112.306 23.0637 113.941 22.8539 115.749 22.8539C117.556 22.8539 119.182 23.0637 120.628 23.4833C122.082 23.8939 123.318 24.5054 124.335 25.3178C125.352 26.1302 126.134 27.1434 126.68 28.3576C127.227 29.5627 127.5 30.9554 127.5 32.5355ZM122.772 32.5355C122.772 31.8481 122.667 31.1652 122.456 30.4867C122.255 29.7993 121.889 29.1833 121.36 28.6388C120.838 28.0942 120.124 27.6523 119.216 27.3131C118.308 26.9738 117.152 26.8042 115.749 26.8042C114.807 26.8042 113.979 26.8846 113.265 27.0452C112.55 27.197 111.932 27.4113 111.411 27.688C110.89 27.9648 110.453 28.2906 110.1 28.6656C109.747 29.0316 109.465 29.4288 109.255 29.8573C109.045 30.2769 108.894 30.7188 108.801 31.1831C108.717 31.6383 108.675 32.0892 108.675 32.5355C108.675 32.9908 108.717 33.4506 108.801 33.9148C108.894 34.379 109.045 34.8254 109.255 35.2539C109.465 35.6735 109.747 36.0663 110.1 36.4323C110.453 36.7983 110.89 37.1197 111.411 37.3965C111.932 37.6643 112.55 37.8785 113.265 38.0392C113.979 38.191 114.807 38.2669 115.749 38.2669C117.152 38.2669 118.308 38.0972 119.216 37.758C120.124 37.4188 120.838 36.9769 121.36 36.4323C121.889 35.8877 122.255 35.2762 122.456 34.5977C122.667 33.9103 122.772 33.2229 122.772 32.5355Z" fill="#000000"/>
</svg>
